<?xml version="1.0" standalone="no"?>
<svg viewBox="0 0 200 200" xmlns="http://www.w3.org/2000/svg">
  <path fill="#F2F4F8" d="M35.9,-68.6C43.5,-57.7,44.6,-42.1,47.7,-29.8C50.8,-17.6,55.8,-8.8,61.3,3.2C66.7,15.1,72.7,30.2,66.9,37.9C61.2,45.5,43.8,45.6,30.7,49.9C17.6,54.1,8.8,62.5,-2.6,67.1C-14.1,71.7,-28.2,72.5,-37.7,66.1C-47.2,59.8,-52,46.3,-60.8,34.1C-69.6,21.9,-82.3,10.9,-86.3,-2.3C-90.4,-15.6,-85.8,-31.2,-75.8,-41.3C-65.8,-51.4,-50.4,-56,-36.8,-63.5C-23.3,-71.1,-11.7,-81.6,1.2,-83.7C14.1,-85.9,28.2,-79.6,35.9,-68.6Z" transform="translate(100 100)" />
</svg>
